<svg xmlns="http://www.w3.org/2000/svg" xmlns:xlink="http://www.w3.org/1999/xlink" width="500" zoomAndPan="magnify" viewBox="0 0 375 374.999991" height="500" preserveAspectRatio="xMidYMid meet" version="1.0"><defs><g/><clipPath id="a2f28f7e25"><path d="M 207.785156 76.167969 L 259 76.167969 L 259 125 L 207.785156 125 Z M 207.785156 76.167969 " clip-rule="nonzero"/></clipPath><clipPath id="6f53853050"><path d="M 260 135 L 357.785156 135 L 357.785156 181.167969 L 260 181.167969 Z M 260 135 " clip-rule="nonzero"/></clipPath></defs><path stroke-linecap="butt" transform="matrix(0.258888, 0, 0, 0.258888, 203.307061, 74.649252)" fill-opacity="0.612" fill="#00ffb3" fill-rule="evenodd" stroke-linejoin="miter" d="M 174.459654 134.073646 L 512.850405 296.92429 L 516.275505 279.240517 L 191.554973 96.201404 C 191.554973 96.201404 189.849968 118.924749 174.474743 134.073646 Z M 174.459654 134.073646 " stroke="#000000" stroke-width="2.797" stroke-opacity="1" stroke-miterlimit="4"/><path stroke-linecap="butt" transform="matrix(0.258888, 0, 0, 0.258888, 203.307061, 74.649252)" fill-opacity="1" fill="#00ffb3" fill-rule="evenodd" stroke-linejoin="miter" d="M 178.624092 126.861323 L 385.216421 226.264643 L 387.29864 215.476335 L 189.065364 103.745675 C 189.065364 103.745675 188.024254 117.612046 178.639181 126.861323 Z M 178.624092 126.861323 " stroke="#000000" stroke-width="2.797" stroke-opacity="1" stroke-miterlimit="4"/><path stroke-linecap="butt" transform="matrix(0.258888, 0, 0, 0.258888, 203.307061, 74.649252)" fill-opacity="1" fill="#00ffb3" fill-rule="evenodd" stroke-linejoin="miter" d="M 198.390083 94.949055 L 523.095526 276.735819 C 523.095526 276.735819 521.390521 294.404503 517.965421 299.459165 C 514.555411 304.498738 499.466868 317.127848 483.789872 310.820837 C 468.127964 304.498738 145.399121 160.599305 145.399121 160.599305 C 145.399121 160.599305 172.73956 150.489981 198.390083 94.949055 Z M 198.390083 94.949055 " stroke="#000000" stroke-width="2.797" stroke-opacity="1" stroke-miterlimit="4"/><path fill="#00ffb3" d="M 255.867188 108.140625 C 255.585938 108.832031 255.273438 109.507812 254.921875 110.171875 C 254.574219 110.835938 254.191406 111.480469 253.773438 112.109375 C 253.355469 112.738281 252.90625 113.34375 252.425781 113.929688 C 251.949219 114.515625 251.4375 115.078125 250.898438 115.617188 C 250.359375 116.15625 249.792969 116.671875 249.203125 117.15625 C 248.609375 117.644531 247.992188 118.101562 247.351562 118.53125 C 246.710938 118.960938 246.050781 119.359375 245.371094 119.726562 C 244.6875 120.097656 243.988281 120.433594 243.273438 120.734375 C 242.554688 121.039062 241.824219 121.308594 241.078125 121.542969 C 240.335938 121.78125 239.578125 121.980469 238.8125 122.148438 C 238.046875 122.3125 237.273438 122.441406 236.496094 122.539062 C 235.714844 122.632812 234.933594 122.691406 234.148438 122.710938 C 233.363281 122.734375 232.578125 122.71875 231.792969 122.667969 C 231.007812 122.617188 230.230469 122.53125 229.453125 122.40625 C 228.679688 122.285156 227.914062 122.125 227.15625 121.929688 C 226.394531 121.738281 225.648438 121.507812 224.914062 121.246094 C 224.179688 120.980469 223.460938 120.683594 222.757812 120.355469 C 222.054688 120.023438 221.371094 119.664062 220.703125 119.269531 C 220.039062 118.878906 219.394531 118.453125 218.773438 118 C 218.148438 117.546875 217.554688 117.066406 216.980469 116.558594 C 216.410156 116.050781 215.867188 115.515625 215.351562 114.957031 C 214.835938 114.398438 214.347656 113.820312 213.894531 113.214844 C 213.4375 112.613281 213.015625 111.988281 212.625 111.347656 C 212.234375 110.703125 211.878906 110.042969 211.554688 109.367188 C 211.234375 108.691406 210.949219 108.003906 210.699219 107.300781 C 210.449219 106.597656 210.234375 105.886719 210.058594 105.164062 C 209.882812 104.441406 209.746094 103.714844 209.648438 102.980469 C 209.546875 102.246094 209.488281 101.507812 209.464844 100.765625 C 209.441406 100.027344 209.457031 99.289062 209.511719 98.546875 C 209.566406 97.808594 209.660156 97.074219 209.789062 96.34375 C 209.921875 95.613281 210.089844 94.890625 210.296875 94.175781 C 210.5 93.460938 210.746094 92.757812 211.023438 92.066406 C 211.304688 91.375 211.617188 90.695312 211.96875 90.035156 C 212.316406 89.371094 212.699219 88.722656 213.117188 88.097656 C 213.535156 87.46875 213.984375 86.863281 214.464844 86.277344 C 214.945312 85.6875 215.453125 85.125 215.992188 84.585938 C 216.53125 84.046875 217.097656 83.535156 217.6875 83.050781 C 218.28125 82.5625 218.898438 82.105469 219.539062 81.675781 C 220.179688 81.246094 220.839844 80.847656 221.519531 80.476562 C 222.203125 80.109375 222.902344 79.773438 223.621094 79.46875 C 224.335938 79.167969 225.066406 78.898438 225.8125 78.660156 C 226.558594 78.425781 227.3125 78.226562 228.078125 78.058594 C 228.84375 77.894531 229.617188 77.761719 230.398438 77.667969 C 231.175781 77.574219 231.957031 77.515625 232.742188 77.496094 C 233.53125 77.472656 234.3125 77.488281 235.097656 77.539062 C 235.882812 77.589844 236.660156 77.675781 237.4375 77.800781 C 238.210938 77.921875 238.976562 78.082031 239.738281 78.273438 C 240.496094 78.46875 241.242188 78.699219 241.976562 78.960938 C 242.710938 79.222656 243.429688 79.519531 244.132812 79.851562 C 244.835938 80.179688 245.523438 80.542969 246.1875 80.9375 C 246.855469 81.328125 247.496094 81.753906 248.121094 82.207031 C 248.742188 82.65625 249.335938 83.140625 249.910156 83.648438 C 250.480469 84.15625 251.023438 84.6875 251.539062 85.246094 C 252.058594 85.804688 252.542969 86.386719 253 86.992188 C 253.453125 87.59375 253.875 88.21875 254.265625 88.859375 C 254.65625 89.503906 255.011719 90.160156 255.335938 90.835938 C 255.65625 91.511719 255.941406 92.203125 256.191406 92.90625 C 256.441406 93.605469 256.65625 94.320312 256.832031 95.042969 C 257.007812 95.761719 257.144531 96.492188 257.242188 97.226562 C 257.34375 97.960938 257.40625 98.699219 257.425781 99.4375 C 257.449219 100.179688 257.433594 100.917969 257.378906 101.65625 C 257.324219 102.394531 257.234375 103.132812 257.101562 103.859375 C 256.96875 104.589844 256.800781 105.3125 256.59375 106.027344 C 256.390625 106.742188 256.144531 107.445312 255.867188 108.140625 Z M 255.867188 108.140625 " fill-opacity="1" fill-rule="nonzero"/><g clip-path="url(#a2f28f7e25)"><path stroke-linecap="butt" transform="matrix(0.258888, 0, 0, 0.258888, 203.307061, 74.649252)" fill="none" stroke-linejoin="miter" d="M 203.022266 129.366021 C 201.935891 132.036693 200.728807 134.647011 199.370838 137.212063 C 198.027958 139.777115 196.549281 142.266725 194.934807 144.69598 C 193.320333 147.125236 191.58515 149.46396 189.72926 151.727241 C 187.888457 153.990523 185.911858 156.163273 183.829639 158.245492 C 181.74742 160.327711 179.559582 162.319399 177.281212 164.190378 C 174.987753 166.076446 172.603763 167.841805 170.129242 169.501545 C 167.654721 171.161285 165.104758 172.700316 162.479351 174.118639 C 159.838856 175.552051 157.138007 176.849665 154.376804 178.011483 C 151.600512 179.188389 148.778954 180.229499 145.897043 181.134811 C 143.030219 182.055213 140.103042 182.824728 137.145688 183.473536 C 134.188333 184.107254 131.200802 184.605176 128.198182 184.98239 C 125.180473 185.344515 122.162765 185.570843 119.129967 185.646286 C 116.09717 185.736817 113.064373 185.676463 110.031576 185.480312 C 106.998779 185.284161 103.996159 184.952213 100.993539 184.469379 C 98.006007 184.001635 95.048653 183.383004 92.121476 182.628577 C 89.17921 181.889239 86.297298 180.999015 83.460652 179.988082 C 80.624006 178.962061 77.847714 177.815332 75.131776 176.547894 C 72.415839 175.265368 69.775344 173.877222 67.195203 172.35328 C 64.630151 170.844425 62.140541 169.199774 59.741463 167.449503 C 57.327296 165.699232 55.033837 163.843341 52.815822 161.881831 C 50.612894 159.92032 48.515587 157.85319 46.523899 155.695528 C 44.532211 153.537867 42.646144 151.304762 40.895873 148.966038 C 39.130513 146.642402 37.500951 144.228236 35.992096 141.753715 C 34.483242 139.264105 33.110185 136.714141 31.857835 134.103823 C 30.620575 131.493505 29.519111 128.837922 28.553445 126.121984 C 27.587778 123.406046 26.757908 120.659932 26.078924 117.868551 C 25.399939 115.077171 24.87184 112.270702 24.494627 109.434056 C 24.102324 106.59741 23.875996 103.745675 23.785465 100.878852 C 23.694934 98.027117 23.755288 95.175383 23.966528 92.30856 C 24.177767 89.456825 24.539892 86.620179 25.037814 83.798621 C 25.550825 80.977064 26.199632 78.185683 26.999325 75.42448 C 27.783929 72.663277 28.734507 69.947339 29.805794 67.276667 C 30.892169 64.605995 32.099252 61.980588 33.457221 59.430625 C 34.800101 56.865572 36.278779 54.360874 37.893253 51.946707 C 39.507727 49.517452 41.242909 47.178728 43.0988 44.915446 C 44.954691 42.637076 46.916201 40.464326 48.99842 38.382107 C 51.080639 36.299888 53.268478 34.323289 55.546848 32.45231 C 57.840306 30.566242 60.224296 28.800883 62.698817 27.141143 C 65.173338 25.481403 67.723302 23.942372 70.348708 22.50896 C 72.989203 21.090637 75.690053 19.793023 78.466344 18.616116 C 81.227548 17.454298 84.049105 16.413189 86.931017 15.492788 C 89.812929 14.587475 92.725017 13.81796 95.682372 13.169152 C 98.639726 12.535433 101.627258 12.022423 104.644966 11.660298 C 107.647586 11.298173 110.665295 11.071845 113.698092 10.996402 C 116.745978 10.905871 119.763686 10.966225 122.796483 11.162376 C 125.829281 11.358527 128.831901 11.690475 131.834521 12.173308 C 134.822052 12.641053 137.779406 13.259683 140.721672 13.999022 C 143.64885 14.753449 146.530761 15.643673 149.367407 16.654606 C 152.204053 17.665538 154.980345 18.812267 157.696283 20.094793 C 160.412221 21.362231 163.067804 22.765465 165.632857 24.289408 C 168.212997 25.798263 170.687518 27.442914 173.101685 29.193185 C 175.500764 30.928367 177.794222 32.799346 180.012238 34.760857 C 182.215165 36.722368 184.312473 38.774409 186.30416 40.932071 C 188.310937 43.089733 190.181916 45.337926 191.947275 47.67665 C 193.697546 50.000285 195.327109 52.414452 196.835963 54.888973 C 198.344818 57.378583 199.717875 59.913458 200.970224 62.523776 C 202.207485 65.134094 203.308948 67.804766 204.274615 70.520704 C 205.240282 73.221553 206.070152 75.982756 206.749136 78.774137 C 207.42812 81.550428 207.956219 84.371986 208.333433 87.208632 C 208.725735 90.045278 208.967152 92.897013 209.042594 95.748747 C 209.133126 98.61557 209.072772 101.467305 208.861532 104.31904 C 208.650292 107.170774 208.303256 110.022509 207.790245 112.828978 C 207.277235 115.650535 206.628428 118.441916 205.828735 121.203119 C 205.044131 123.964323 204.093552 126.68026 203.022266 129.366021 Z M 203.022266 129.366021 " stroke="#000000" stroke-width="1" stroke-opacity="1" stroke-miterlimit="4"/></g><path fill="#00ffb3" d="M 237.613281 95.324219 C 237.410156 95.828125 237.15625 96.308594 236.851562 96.769531 C 236.546875 97.226562 236.199219 97.652344 235.804688 98.046875 C 235.410156 98.4375 234.980469 98.792969 234.511719 99.105469 C 234.046875 99.417969 233.550781 99.6875 233.027344 99.90625 C 232.503906 100.128906 231.960938 100.300781 231.402344 100.421875 C 230.84375 100.542969 230.277344 100.609375 229.703125 100.628906 C 229.128906 100.644531 228.558594 100.605469 227.992188 100.515625 C 227.429688 100.425781 226.878906 100.285156 226.339844 100.09375 C 225.804688 99.902344 225.292969 99.660156 224.808594 99.375 C 224.320312 99.085938 223.871094 98.757812 223.453125 98.386719 C 223.035156 98.015625 222.660156 97.609375 222.328125 97.167969 C 221.992188 96.726562 221.710938 96.261719 221.476562 95.769531 C 221.238281 95.273438 221.058594 94.765625 220.929688 94.238281 C 220.800781 93.710938 220.730469 93.175781 220.710938 92.636719 C 220.695312 92.09375 220.734375 91.558594 220.832031 91.023438 C 220.925781 90.492188 221.074219 89.972656 221.28125 89.46875 C 221.484375 88.960938 221.738281 88.480469 222.042969 88.023438 C 222.347656 87.5625 222.695312 87.136719 223.089844 86.746094 C 223.484375 86.351562 223.914062 85.996094 224.382812 85.683594 C 224.847656 85.371094 225.34375 85.101562 225.867188 84.882812 C 226.390625 84.660156 226.933594 84.488281 227.492188 84.367188 C 228.050781 84.246094 228.617188 84.179688 229.191406 84.164062 C 229.765625 84.148438 230.335938 84.183594 230.898438 84.273438 C 231.464844 84.363281 232.015625 84.503906 232.554688 84.695312 C 233.089844 84.890625 233.601562 85.128906 234.085938 85.414062 C 234.574219 85.703125 235.023438 86.03125 235.441406 86.402344 C 235.859375 86.773438 236.234375 87.179688 236.566406 87.621094 C 236.898438 88.0625 237.183594 88.527344 237.417969 89.023438 C 237.652344 89.515625 237.835938 90.023438 237.964844 90.550781 C 238.09375 91.078125 238.164062 91.613281 238.183594 92.152344 C 238.199219 92.695312 238.160156 93.230469 238.0625 93.765625 C 237.96875 94.296875 237.820312 94.816406 237.613281 95.324219 Z M 237.613281 95.324219 " fill-opacity="1" fill-rule="nonzero"/><path stroke-linecap="butt" transform="matrix(0.258888, 0, 0, 0.258888, 203.307061, 74.649252)" fill-opacity="0.75" fill="#00ffb3" fill-rule="evenodd" stroke-linejoin="miter" d="M 46.886024 52.942551 C 46.886024 52.942551 91.321783 46.620452 128.922432 87.012481 C 169.269195 130.376953 151.132767 111.003264 151.132767 111.003264 " stroke="#000000" stroke-width="1" stroke-opacity="1" stroke-miterlimit="4"/><path stroke-linecap="butt" transform="matrix(0.258888, 0, 0, 0.258888, 203.307061, 74.649252)" fill-opacity="0.75" fill="#00ffb3" fill-rule="evenodd" stroke-linejoin="miter" d="M 81.016308 31.501732 C 81.016308 31.501732 114.437431 26.763929 142.71336 57.137166 C 173.05642 89.743507 159.416377 75.183063 159.416377 75.183063 " stroke="#000000" stroke-width="0.752" stroke-opacity="1" stroke-miterlimit="4"/><path stroke-linecap="butt" transform="matrix(0.258888, 0, 0, 0.258888, 203.307061, 74.649252)" fill-opacity="0.75" fill="#00ffb3" fill-rule="evenodd" stroke-linejoin="miter" d="M 64.252937 41.897738 C 64.252937 41.897738 103.920716 36.269711 137.492724 72.331329 C 173.524165 111.033441 157.334158 93.741971 157.334158 93.741971 " stroke="#000000" stroke-width="0.893" stroke-opacity="1" stroke-miterlimit="4"/><path stroke-linecap="butt" transform="matrix(0.258888, 0, 0, 0.258888, 203.307061, 74.649252)" fill-opacity="0.75" fill="#00ffb3" fill-rule="evenodd" stroke-linejoin="miter" d="M 84.667736 97.740435 C 84.667736 97.740435 69.639547 80.946887 119.944749 48.959176 C 173.916467 14.632741 149.804975 30.053232 149.804975 30.053232 " stroke="#000000" stroke-width="1" stroke-opacity="1" stroke-miterlimit="4"/><path stroke-linecap="butt" transform="matrix(0.258888, 0, 0, 0.258888, 203.307061, 74.649252)" fill-opacity="0.75" fill="#00ffb3" fill-rule="evenodd" stroke-linejoin="miter" d="M 48.711738 82.576449 C 48.711738 82.576449 40.413039 66.129938 78.224928 42.063712 C 118.828197 16.247215 100.691768 27.850304 100.691768 27.850304 " stroke="#000000" stroke-width="0.752" stroke-opacity="1" stroke-miterlimit="4"/><path stroke-linecap="butt" transform="matrix(0.258888, 0, 0, 0.258888, 203.307061, 74.649252)" fill-opacity="0.75" fill="#00ffb3" fill-rule="evenodd" stroke-linejoin="miter" d="M 64.509442 92.489622 C 64.509442 92.489622 54.339764 72.814162 99.243268 44.251551 C 147.420985 13.60672 125.904723 27.367471 125.904723 27.367471 " stroke="#000000" stroke-width="0.893" stroke-opacity="1" stroke-miterlimit="4"/><g clip-path="url(#6f53853050)"><path stroke-linecap="butt" transform="matrix(0.258888, 0, 0, 0.258888, 203.307061, 74.649252)" fill="none" stroke-linejoin="miter" d="M 519.685515 297.195883 C 519.685515 297.195883 617.263122 313.295359 584.626604 365.350831 C 551.990086 417.421393 323.142156 323.706453 292.376617 352.73681 C 261.626166 381.767166 307.766931 407.010298 307.766931 407.010298 " stroke="#000000" stroke-width="10.837" stroke-opacity="1" stroke-miterlimit="4"/></g><path stroke-linecap="butt" transform="matrix(0.258888, 0, 0, 0.258888, 203.307061, 74.649252)" fill="none" stroke-linejoin="miter" d="M 197.997781 93.002633 L 197.997781 92.006789 " stroke="#000000" stroke-width="2.797" stroke-opacity="1" stroke-miterlimit="4"/><path stroke-linecap="butt" transform="matrix(0.258888, 0, 0, 0.258888, 203.307061, 74.649252)" fill="none" stroke-linejoin="miter" d="M 196.006093 89.004169 L 197.001937 89.004169 " stroke="#000000" stroke-width="2.797" stroke-opacity="1" stroke-miterlimit="4"/><g fill="#545454" fill-opacity="1"><g transform="translate(136.290934, 257.007845)"><g><path d="M -0.6875 -3.828125 C -0.75 -3.703125 -0.765625 -3.5625 -0.765625 -3.4375 C -0.765625 -2.796875 -0.203125 -2.40625 0.4375 -2.40625 C 1.28125 -2.40625 2.265625 -3.0625 2.265625 -4.78125 L 2.265625 -4.984375 C 2.265625 -5.0625 2.265625 -5.140625 2.234375 -5.21875 C 3.4375 -6.109375 4.640625 -6.859375 6.078125 -7.34375 C 6.3125 -7.421875 6.4375 -7.59375 6.4375 -7.828125 C 6.4375 -7.90625 6.4375 -7.984375 6.421875 -8.015625 C 6.34375 -8.21875 6.15625 -8.34375 5.953125 -8.34375 C 5.875 -8.34375 5.796875 -8.34375 5.78125 -8.3125 C 4.359375 -7.828125 3.1875 -7.140625 2.03125 -6.3125 C 1.828125 -7.140625 1.203125 -8.453125 1.203125 -9.34375 C 1.203125 -9.65625 1.28125 -9.890625 1.40625 -10.015625 C 1.484375 -10.09375 1.640625 -10.265625 1.921875 -10.265625 C 2.109375 -10.265625 2.3125 -10.21875 2.546875 -10.09375 C 2.640625 -10.0625 2.71875 -10.03125 2.765625 -10.03125 C 2.953125 -10.03125 3.109375 -10.109375 3.234375 -10.296875 C 3.28125 -10.375 3.3125 -10.453125 3.3125 -10.546875 C 3.3125 -10.75 3.203125 -10.90625 3.03125 -10.984375 C 2.671875 -11.1875 2.3125 -11.296875 1.921875 -11.296875 C 0.96875 -11.296875 0.1875 -10.578125 0.1875 -9.265625 C 0.1875 -9.09375 0.203125 -8.9375 0.234375 -8.734375 C 0.4375 -7.578125 0.921875 -6.796875 1.15625 -5.640625 C -0.15625 -4.640625 -0.515625 -4.3125 -0.6875 -3.828125 Z M 0.25 -3.46875 C 0.328125 -3.640625 0.609375 -3.90625 1.203125 -4.390625 C 1.078125 -3.4375 0.4375 -3.34375 0.25 -3.46875 Z M 0.25 -3.46875 "/></g></g></g><g fill="#545454" fill-opacity="1"><g transform="translate(145.352262, 257.007845)"><g><path d="M 0.640625 -3.59375 C 0.875 -3.46875 1.109375 -3.390625 1.328125 -3.390625 C 2.921875 -3.390625 4.625 -6 5.4375 -7.515625 C 5.46875 -7.625 5.5 -7.703125 5.5 -7.75 C 5.5 -7.9375 5.421875 -8.09375 5.234375 -8.21875 C 5.140625 -8.234375 5.0625 -8.265625 5 -8.265625 C 4.796875 -8.265625 4.640625 -8.1875 4.515625 -8.015625 C 3.46875 -6.140625 2.125 -4.4375 1.359375 -4.4375 C 1.28125 -4.4375 1.234375 -4.46875 1.15625 -4.5 C 0.96875 -4.59375 0.90625 -4.859375 0.90625 -5.28125 C 0.90625 -6.59375 1.6875 -9.09375 1.90625 -9.75 C 1.984375 -10.03125 1.828125 -10.3125 1.546875 -10.390625 C 1.265625 -10.46875 0.96875 -10.296875 0.90625 -10.015625 C 0.484375 -8.5 -0.109375 -6.703125 -0.109375 -5.34375 C -0.109375 -4.546875 0.109375 -3.921875 0.640625 -3.59375 Z M 2.078125 -11.828125 C 2.34375 -11.828125 2.484375 -11.96875 2.5625 -12.1875 L 2.796875 -12.96875 C 2.90625 -13.34375 2.59375 -13.609375 2.28125 -13.609375 C 2.078125 -13.609375 1.875 -13.5 1.796875 -13.21875 L 1.6875 -12.859375 L 1.59375 -12.484375 C 1.515625 -12.171875 1.6875 -11.828125 2.078125 -11.828125 Z M 2.078125 -11.828125 "/></g></g></g><g fill="#545454" fill-opacity="1"><g transform="translate(153.335695, 257.007845)"><g><path d="M 0.515625 -3.4375 C 0.75 -3.4375 0.90625 -3.546875 0.96875 -3.78125 C 1.921875 -6.4375 3.0625 -9.234375 3.640625 -9.234375 C 3.75 -9.234375 3.828125 -9.171875 3.90625 -8.984375 C 3.984375 -8.75 4.03125 -8.453125 4.03125 -8.0625 C 4.03125 -7.109375 3.84375 -5.90625 4.953125 -5.21875 C 5.234375 -5.03125 5.546875 -4.921875 5.9375 -4.921875 C 7.296875 -4.921875 8.59375 -6.265625 9.375 -7.515625 C 9.421875 -7.59375 9.453125 -7.671875 9.453125 -7.78125 C 9.453125 -7.984375 9.375 -8.140625 9.1875 -8.21875 C 9.109375 -8.265625 9.015625 -8.296875 8.90625 -8.296875 C 8.734375 -8.296875 8.578125 -8.21875 8.5 -8.03125 C 8.015625 -7.1875 6.875 -5.953125 5.984375 -5.953125 C 5.796875 -5.953125 5.640625 -6 5.515625 -6.078125 C 4.921875 -6.46875 5.0625 -7.234375 5.0625 -8.09375 C 5.0625 -8.515625 5.03125 -8.984375 4.859375 -9.390625 C 4.625 -9.984375 4.140625 -10.296875 3.59375 -10.296875 C 2.515625 -10.296875 1.921875 -8.9375 1.265625 -7.3125 C 1.359375 -8.3125 1.4375 -9.171875 1.546875 -9.890625 C 1.625 -10.171875 1.390625 -10.453125 1.109375 -10.46875 C 0.828125 -10.546875 0.5625 -10.3125 0.546875 -10.03125 C 0.25 -8.0625 0.078125 -5.625 0 -3.984375 C -0.03125 -3.703125 0.203125 -3.4375 0.515625 -3.4375 Z M 0.515625 -3.4375 "/></g></g></g><g fill="#545454" fill-opacity="1"><g transform="translate(165.245732, 257.007845)"><g><path d="M -0.6875 7.671875 C -0.40625 7.796875 -0.125 7.859375 0.109375 7.859375 C 0.90625 7.859375 1.828125 7.390625 2.71875 5.984375 C 4.59375 3 5.140625 -0.25 5.234375 -3.78125 C 6.359375 -4.90625 7.546875 -5.953125 8.65625 -7.015625 C 8.75 -7.109375 8.8125 -7.234375 8.8125 -7.390625 C 8.8125 -7.515625 8.75 -7.65625 8.65625 -7.75 C 8.546875 -7.859375 8.421875 -7.90625 8.296875 -7.90625 C 8.15625 -7.90625 8.03125 -7.859375 7.9375 -7.75 L 5.234375 -5.21875 C 5.234375 -6.625 5.1875 -8.015625 5.15625 -9.46875 L 5.15625 -9.578125 C 5.140625 -9.90625 4.953125 -10.0625 4.640625 -10.0625 C 4.359375 -10.09375 4.15625 -9.90625 4.140625 -9.625 C 3.84375 -7.375 2.15625 -4.59375 0.953125 -4.140625 C 0.828125 -4.078125 0.71875 -4.0625 0.640625 -4.0625 C 0.3125 -4.0625 0.15625 -4.3125 0.15625 -4.859375 C 0.15625 -6.1875 1.359375 -8.65625 3.34375 -9.0625 C 3.625 -9.109375 3.75 -9.265625 3.75 -9.546875 L 3.75 -9.65625 C 3.671875 -9.9375 3.46875 -10.0625 3.234375 -10.0625 L 3.125 -10.0625 C 0.765625 -9.59375 -0.875 -6.796875 -0.875 -4.875 C -0.875 -4.234375 -0.671875 -3.671875 -0.25 -3.34375 C 0 -3.125 0.3125 -3.03125 0.640625 -3.03125 C 1.953125 -3.03125 3.421875 -4.859375 4.203125 -6.46875 L 4.203125 -4.203125 C 1.765625 -1.765625 -0.546875 1 -1.4375 4.359375 C -1.625 4.875 -1.6875 5.4375 -1.6875 5.9375 C -1.6875 6.671875 -1.4375 7.34375 -0.6875 7.671875 Z M -0.28125 6.71875 C -0.546875 6.625 -0.671875 6.3125 -0.671875 5.796875 C -0.671875 4.234375 0.75 0.84375 4.15625 -2.703125 C 3.984375 0.359375 3.390625 2.953125 1.84375 5.421875 C 1.265625 6.34375 0.671875 6.796875 0.109375 6.796875 C -0.03125 6.796875 -0.15625 6.78125 -0.28125 6.71875 Z M -0.28125 6.71875 "/></g></g></g><g fill="#545454" fill-opacity="1"><g transform="translate(176.616832, 257.007845)"><g/></g></g><g fill="#545454" fill-opacity="1"><g transform="translate(185.472854, 257.007845)"><g><path d="M -0.078125 -3.640625 C 0.15625 -3.484375 0.40625 -3.421875 0.6875 -3.421875 C 1.640625 -3.421875 2.75 -4.515625 3.34375 -5.46875 C 3.265625 -4.265625 3.828125 -3.421875 4.71875 -3.421875 C 5.75 -3.421875 7.234375 -4.515625 8.875 -7.515625 C 8.90625 -7.625 8.9375 -7.703125 8.9375 -7.75 C 8.9375 -7.953125 8.828125 -8.109375 8.65625 -8.21875 C 8.59375 -8.234375 8.515625 -8.265625 8.421875 -8.265625 C 8.21875 -8.265625 8.0625 -8.1875 7.953125 -8.015625 C 7.140625 -6.359375 5.625 -4.46875 4.875 -4.46875 C 4.59375 -4.46875 4.4375 -4.703125 4.4375 -5.390625 C 4.4375 -5.71875 4.46875 -6.140625 4.5625 -6.65625 C 4.640625 -7.1875 4.75 -7.734375 4.921875 -8.21875 C 5.0625 -8.59375 4.828125 -8.9375 4.4375 -8.9375 C 4.265625 -8.9375 4.109375 -8.828125 3.984375 -8.625 C 3.359375 -7.4375 2.359375 -5.5 1.3125 -4.71875 C 1.078125 -4.546875 0.90625 -4.46875 0.71875 -4.46875 C 0.4375 -4.46875 0.3125 -4.671875 0.3125 -5.109375 C 0.3125 -6.4375 1.828125 -9.421875 4.5625 -9.421875 C 4.859375 -9.421875 5.078125 -9.65625 5.078125 -9.9375 C 5.078125 -10.21875 4.859375 -10.453125 4.5625 -10.453125 C 1.359375 -10.453125 -0.6875 -7.1875 -0.6875 -5.109375 C -0.6875 -4.46875 -0.484375 -3.921875 -0.078125 -3.640625 Z M -0.078125 -3.640625 "/></g></g></g><g fill="#545454" fill-opacity="1"><g transform="translate(196.869612, 257.007845)"><g><path d="M 2.34375 -3.421875 C 3.921875 -3.421875 5.671875 -6.15625 6.421875 -7.515625 C 6.4375 -7.578125 6.46875 -7.65625 6.46875 -7.78125 C 6.46875 -7.984375 6.390625 -8.140625 6.21875 -8.234375 C 6.109375 -8.265625 6.03125 -8.296875 5.984375 -8.296875 C 5.78125 -8.296875 5.625 -8.1875 5.515625 -8.015625 C 4.5625 -6.3125 3.125 -4.4375 2.359375 -4.4375 C 2.28125 -4.4375 2.234375 -4.46875 2.15625 -4.5 C 1.828125 -4.703125 1.28125 -5 1.28125 -7.375 C 1.28125 -9.5 1.71875 -12.859375 2.71875 -17.796875 C 2.765625 -18.125 2.640625 -18.328125 2.3125 -18.40625 C 2.03125 -18.484375 1.796875 -18.28125 1.71875 -18 C 1.109375 -14.890625 0.25 -10.671875 0.25 -7.59375 C 0.25 -5.15625 0.765625 -3.421875 2.34375 -3.421875 Z M 2.34375 -3.421875 "/></g></g></g><g fill="#545454" fill-opacity="1"><g transform="translate(205.828287, 257.007845)"><g><path d="M 4.078125 -4.796875 C 4.46875 -5.5 4.703125 -6.296875 4.703125 -7.078125 C 4.984375 -7.03125 5.265625 -7.015625 5.59375 -7.015625 C 6.1875 -7.015625 6.828125 -7.109375 7.515625 -7.296875 C 7.78125 -7.375 7.90625 -7.546875 7.90625 -7.828125 L 7.90625 -7.9375 C 7.828125 -8.140625 7.625 -8.3125 7.390625 -8.3125 C 7.3125 -8.3125 7.34375 -8.296875 7.265625 -8.296875 C 6.671875 -8.109375 6.140625 -8.03125 5.625 -8.03125 C 5.21875 -8.03125 4.859375 -8.109375 4.546875 -8.1875 C 4.34375 -9.109375 3.484375 -10.5 2.515625 -10.375 C 2.4375 -10.421875 2.34375 -10.453125 2.234375 -10.453125 C 2.109375 -10.453125 1.984375 -10.421875 1.90625 -10.34375 C 1.15625 -9.703125 0.59375 -8.875 0.3125 -7.875 C 0.125 -7.3125 0.046875 -6.78125 0.046875 -6.265625 C 0.046875 -4.515625 1.03125 -3.421875 2.125 -3.421875 C 2.828125 -3.421875 3.484375 -3.84375 4.078125 -4.796875 Z M 3.1875 -5.34375 C 2.796875 -4.71875 2.4375 -4.421875 2.109375 -4.421875 C 1.515625 -4.421875 1.109375 -5.265625 1.109375 -6.359375 C 1.109375 -7.1875 1.359375 -8.15625 2 -8.984375 C 2.234375 -8.390625 2.796875 -7.796875 3.640625 -7.421875 C 3.640625 -7.3125 3.671875 -7.21875 3.671875 -7.078125 C 3.671875 -6.4375 3.46875 -5.828125 3.1875 -5.34375 Z M 3.1875 -5.34375 "/></g></g></g><g fill="#545454" fill-opacity="1"><g transform="translate(216.301141, 257.007845)"><g><path d="M 0.515625 -3.4375 C 0.75 -3.4375 0.90625 -3.546875 0.96875 -3.78125 C 1.921875 -6.4375 3.0625 -9.234375 3.640625 -9.234375 C 3.75 -9.234375 3.828125 -9.171875 3.90625 -8.984375 C 3.984375 -8.75 4.03125 -8.453125 4.03125 -8.0625 C 4.03125 -7.109375 3.84375 -5.90625 4.953125 -5.21875 C 5.234375 -5.03125 5.546875 -4.921875 5.9375 -4.921875 C 7.296875 -4.921875 8.59375 -6.265625 9.375 -7.515625 C 9.421875 -7.59375 9.453125 -7.671875 9.453125 -7.78125 C 9.453125 -7.984375 9.375 -8.140625 9.1875 -8.21875 C 9.109375 -8.265625 9.015625 -8.296875 8.90625 -8.296875 C 8.734375 -8.296875 8.578125 -8.21875 8.5 -8.03125 C 8.015625 -7.1875 6.875 -5.953125 5.984375 -5.953125 C 5.796875 -5.953125 5.640625 -6 5.515625 -6.078125 C 4.921875 -6.46875 5.0625 -7.234375 5.0625 -8.09375 C 5.0625 -8.515625 5.03125 -8.984375 4.859375 -9.390625 C 4.625 -9.984375 4.140625 -10.296875 3.59375 -10.296875 C 2.515625 -10.296875 1.921875 -8.9375 1.265625 -7.3125 C 1.359375 -8.3125 1.4375 -9.171875 1.546875 -9.890625 C 1.625 -10.171875 1.390625 -10.453125 1.109375 -10.46875 C 0.828125 -10.546875 0.5625 -10.3125 0.546875 -10.03125 C 0.25 -8.0625 0.078125 -5.625 0 -3.984375 C -0.03125 -3.703125 0.203125 -3.4375 0.515625 -3.4375 Z M 0.515625 -3.4375 "/></g></g></g><g fill="#545454" fill-opacity="1"><g transform="translate(228.211178, 257.007845)"><g><path d="M -0.6875 7.671875 C -0.40625 7.796875 -0.125 7.859375 0.109375 7.859375 C 0.90625 7.859375 1.828125 7.390625 2.71875 5.984375 C 4.59375 3 5.140625 -0.25 5.234375 -3.78125 C 6.359375 -4.90625 7.546875 -5.953125 8.65625 -7.015625 C 8.75 -7.109375 8.8125 -7.234375 8.8125 -7.390625 C 8.8125 -7.515625 8.75 -7.65625 8.65625 -7.75 C 8.546875 -7.859375 8.421875 -7.90625 8.296875 -7.90625 C 8.15625 -7.90625 8.03125 -7.859375 7.9375 -7.75 L 5.234375 -5.21875 C 5.234375 -6.625 5.1875 -8.015625 5.15625 -9.46875 L 5.15625 -9.578125 C 5.140625 -9.90625 4.953125 -10.0625 4.640625 -10.0625 C 4.359375 -10.09375 4.15625 -9.90625 4.140625 -9.625 C 3.84375 -7.375 2.15625 -4.59375 0.953125 -4.140625 C 0.828125 -4.078125 0.71875 -4.0625 0.640625 -4.0625 C 0.3125 -4.0625 0.15625 -4.3125 0.15625 -4.859375 C 0.15625 -6.1875 1.359375 -8.65625 3.34375 -9.0625 C 3.625 -9.109375 3.75 -9.265625 3.75 -9.546875 L 3.75 -9.65625 C 3.671875 -9.9375 3.46875 -10.0625 3.234375 -10.0625 L 3.125 -10.0625 C 0.765625 -9.59375 -0.875 -6.796875 -0.875 -4.875 C -0.875 -4.234375 -0.671875 -3.671875 -0.25 -3.34375 C 0 -3.125 0.3125 -3.03125 0.640625 -3.03125 C 1.953125 -3.03125 3.421875 -4.859375 4.203125 -6.46875 L 4.203125 -4.203125 C 1.765625 -1.765625 -0.546875 1 -1.4375 4.359375 C -1.625 4.875 -1.6875 5.4375 -1.6875 5.9375 C -1.6875 6.671875 -1.4375 7.34375 -0.6875 7.671875 Z M -0.28125 6.71875 C -0.546875 6.625 -0.671875 6.3125 -0.671875 5.796875 C -0.671875 4.234375 0.75 0.84375 4.15625 -2.703125 C 3.984375 0.359375 3.390625 2.953125 1.84375 5.421875 C 1.265625 6.34375 0.671875 6.796875 0.109375 6.796875 C -0.03125 6.796875 -0.15625 6.78125 -0.28125 6.71875 Z M -0.28125 6.71875 "/></g></g></g><g fill="#000000" fill-opacity="1"><g transform="translate(11.643083, 217.681774)"><g><path d="M 40.296875 -62.484375 L 40.296875 -49.984375 L 18.78125 -49.984375 L 18.78125 -37.5625 L 39.375 -37.5625 L 39.375 -25.0625 L 18.78125 -25.0625 L 18.78125 -12.5 L 40.296875 -12.5 L 40.296875 0 L 4.546875 0 L 4.546875 -62.484375 Z M 40.296875 -62.484375 "/></g></g></g><g fill="#000000" fill-opacity="1"><g transform="translate(55.56452, 217.681774)"><g><path d="M 7.1875 -4.796875 C 3.550781 -8.765625 1.734375 -13.625 1.734375 -19.375 C 1.734375 -25.132812 3.550781 -30.007812 7.1875 -34 C 10.820312 -37.988281 15.441406 -39.984375 21.046875 -39.984375 C 26.203125 -39.984375 30.445312 -38.367188 33.78125 -35.140625 L 33.78125 -65.125 L 47.1875 -65.125 L 47.1875 0 L 33.921875 0 L 33.921875 -4.390625 L 33.78125 -4.390625 C 30.445312 -0.703125 26.203125 1.140625 21.046875 1.140625 C 15.441406 1.140625 10.820312 -0.835938 7.1875 -4.796875 Z M 18.59375 -25.96875 C 16.851562 -24.257812 15.984375 -22.066406 15.984375 -19.390625 C 15.984375 -16.710938 16.816406 -14.523438 18.484375 -12.828125 C 20.148438 -11.140625 22.34375 -10.296875 25.0625 -10.296875 C 27.6875 -10.296875 29.84375 -11.15625 31.53125 -12.875 C 33.226562 -14.59375 34.078125 -16.765625 34.078125 -19.390625 C 34.078125 -22.066406 33.207031 -24.257812 31.46875 -25.96875 C 29.726562 -27.6875 27.59375 -28.546875 25.0625 -28.546875 C 22.488281 -28.546875 20.332031 -27.6875 18.59375 -25.96875 Z M 18.59375 -25.96875 "/></g></g></g><g fill="#000000" fill-opacity="1"><g transform="translate(107.285803, 217.681774)"><g><path d="M 17.1875 -38.859375 L 17.1875 -20.375 C 17.1875 -16.53125 17.765625 -13.800781 18.921875 -12.1875 C 20.085938 -10.570312 22.054688 -9.765625 24.828125 -9.765625 C 27.609375 -9.765625 29.578125 -10.570312 30.734375 -12.1875 C 31.898438 -13.800781 32.484375 -16.53125 32.484375 -20.375 L 32.484375 -38.859375 L 45.890625 -38.859375 L 45.890625 -17.109375 C 45.890625 -10.648438 44.210938 -5.992188 40.859375 -3.140625 C 37.503906 -0.285156 32.164062 1.140625 24.84375 1.140625 C 17.519531 1.140625 12.175781 -0.285156 8.8125 -3.140625 C 5.457031 -5.992188 3.78125 -10.648438 3.78125 -17.109375 L 3.78125 -38.859375 Z M 17.1875 -38.859375 "/></g></g></g><g fill="#00ffb3" fill-opacity="1"><g transform="translate(156.964945, 217.492236)"><g><path d="M 8.203125 -4.609375 C 3.890625 -8.453125 1.734375 -13.378906 1.734375 -19.390625 C 1.734375 -25.398438 3.976562 -30.332031 8.46875 -34.1875 C 12.96875 -38.050781 18.523438 -39.984375 25.140625 -39.984375 C 31.648438 -39.984375 37.140625 -38.039062 41.609375 -34.15625 C 46.078125 -30.269531 48.3125 -25.347656 48.3125 -19.390625 C 48.3125 -13.429688 46.128906 -8.519531 41.765625 -4.65625 C 37.398438 -0.789062 31.859375 1.140625 25.140625 1.140625 C 18.171875 1.140625 12.523438 -0.773438 8.203125 -4.609375 Z M 18.59375 -25.96875 C 16.851562 -24.257812 15.984375 -22.066406 15.984375 -19.390625 C 15.984375 -16.710938 16.816406 -14.523438 18.484375 -12.828125 C 20.148438 -11.140625 22.34375 -10.296875 25.0625 -10.296875 C 27.6875 -10.296875 29.84375 -11.15625 31.53125 -12.875 C 33.226562 -14.59375 34.078125 -16.765625 34.078125 -19.390625 C 34.078125 -22.066406 33.207031 -24.257812 31.46875 -25.96875 C 29.726562 -27.6875 27.59375 -28.546875 25.0625 -28.546875 C 22.488281 -28.546875 20.332031 -27.6875 18.59375 -25.96875 Z M 18.59375 -25.96875 "/></g></g></g><g fill="#00ffb3" fill-opacity="1"><g transform="translate(207.020244, 217.492236)"><g><path d="M 48.921875 -38.859375 L 30.4375 -20.296875 L 50.734375 0 L 33.46875 0 L 17.953125 -15.53125 L 17.953125 0 L 4.546875 0 L 4.546875 -65.125 L 17.953125 -65.125 L 17.953125 -25.296875 L 31.5 -38.859375 Z M 48.921875 -38.859375 "/></g></g></g><g fill="#00ffb3" fill-opacity="1"><g transform="translate(255.939647, 217.492236)"><g><path d="M 43.84375 -17.578125 L 15.671875 -17.578125 C 15.671875 -14.847656 16.554688 -12.828125 18.328125 -11.515625 C 20.097656 -10.203125 22.015625 -9.546875 24.078125 -9.546875 C 26.253906 -9.546875 27.972656 -9.832031 29.234375 -10.40625 C 30.492188 -10.988281 31.929688 -12.140625 33.546875 -13.859375 L 43.25 -9.015625 C 39.207031 -2.242188 32.488281 1.140625 23.09375 1.140625 C 17.238281 1.140625 12.210938 -0.863281 8.015625 -4.875 C 3.828125 -8.894531 1.734375 -13.734375 1.734375 -19.390625 C 1.734375 -25.046875 3.828125 -29.890625 8.015625 -33.921875 C 12.210938 -37.960938 17.238281 -39.984375 23.09375 -39.984375 C 29.257812 -39.984375 34.269531 -38.203125 38.125 -34.640625 C 41.988281 -31.085938 43.921875 -26.003906 43.921875 -19.390625 C 43.921875 -18.484375 43.894531 -17.878906 43.84375 -17.578125 Z M 16.0625 -25 L 30.828125 -25 C 30.523438 -27.007812 29.726562 -28.554688 28.4375 -29.640625 C 27.144531 -30.734375 25.492188 -31.28125 23.484375 -31.28125 C 21.253906 -31.28125 19.484375 -30.695312 18.171875 -29.53125 C 16.859375 -28.375 16.15625 -26.863281 16.0625 -25 Z M 16.0625 -25 "/></g></g></g><g fill="#00ffb3" fill-opacity="1"><g transform="translate(301.602806, 217.492236)"><g><path d="M 43.84375 -17.578125 L 15.671875 -17.578125 C 15.671875 -14.847656 16.554688 -12.828125 18.328125 -11.515625 C 20.097656 -10.203125 22.015625 -9.546875 24.078125 -9.546875 C 26.253906 -9.546875 27.972656 -9.832031 29.234375 -10.40625 C 30.492188 -10.988281 31.929688 -12.140625 33.546875 -13.859375 L 43.25 -9.015625 C 39.207031 -2.242188 32.488281 1.140625 23.09375 1.140625 C 17.238281 1.140625 12.210938 -0.863281 8.015625 -4.875 C 3.828125 -8.894531 1.734375 -13.734375 1.734375 -19.390625 C 1.734375 -25.046875 3.828125 -29.890625 8.015625 -33.921875 C 12.210938 -37.960938 17.238281 -39.984375 23.09375 -39.984375 C 29.257812 -39.984375 34.269531 -38.203125 38.125 -34.640625 C 41.988281 -31.085938 43.921875 -26.003906 43.921875 -19.390625 C 43.921875 -18.484375 43.894531 -17.878906 43.84375 -17.578125 Z M 16.0625 -25 L 30.828125 -25 C 30.523438 -27.007812 29.726562 -28.554688 28.4375 -29.640625 C 27.144531 -30.734375 25.492188 -31.28125 23.484375 -31.28125 C 21.253906 -31.28125 19.484375 -30.695312 18.171875 -29.53125 C 16.859375 -28.375 16.15625 -26.863281 16.0625 -25 Z M 16.0625 -25 "/></g></g></g></svg>